<svg width="1280" height="832" viewBox="0 0 1280 832" fill="none" xmlns="http://www.w3.org/2000/svg">
<g opacity="0.19">
<path d="M1863.86 331.705L949.996 -199.944C943.433 -203.733 935.989 -205.728 928.411 -205.728C920.834 -205.728 913.39 -203.733 906.827 -199.944L-459.856 582.706C-466.527 586.449 -472.081 591.902 -475.947 598.503C-479.812 605.105 -481.85 612.616 -481.85 620.266C-481.85 627.916 -479.812 635.428 -475.947 642.029C-472.081 648.63 -466.527 654.083 -459.856 657.826L414.14 1162.23C435.587 1174.58 459.903 1181.09 484.653 1181.09C509.403 1181.09 533.718 1174.58 555.165 1162.23L1863.86 406.625C1870.5 402.86 1876.03 397.4 1879.87 390.801C1883.72 384.203 1885.75 376.702 1885.75 369.065C1885.75 361.427 1883.72 353.927 1879.87 347.328C1876.03 340.73 1870.5 335.27 1863.86 331.505V331.705Z" fill="#B0ECFF"/>
<path d="M308.622 1100.18L261.997 1073.24L1708.61 238.006L1758.69 267.002L308.622 1100.18Z" fill="#A2B3F9"/>
<path d="M-318.681 736.552L-365.305 709.609L1081.26 -125.725L1131.34 -96.7291L-318.681 736.552Z" fill="#A2B3F9"/>
<path d="M1039.34 58.0181L1194.74 -31.2746L1144.86 -60.3209L989.609 29.3222L1039.34 58.0181Z" fill="#A2B3F9"/>
<path d="M1133.74 114.258L1289.19 24.9653L1239.31 -4.13116L1084.06 85.512L1133.74 114.258Z" fill="#A2B3F9"/>
<path d="M1217.17 162.836L1372.62 73.5929L1322.64 44.4965L1167.44 134.14L1217.17 162.836Z" fill="#A2B3F9"/>
<path d="M1306.52 218.925L1461.91 129.632L1411.98 100.536L1256.79 190.179L1306.52 218.925Z" fill="#A2B3F9"/>
<path d="M-192.278 811.972L224.888 573.141L615.462 340.419L773.214 247.972L1103.94 512.294L187.929 1032.57L-192.278 811.972Z" fill="url(#paint0_linear_137_15)"/>
<path d="M151.12 530.323L192.436 460.661C237.508 425.305 349.587 342.022 349.587 342.022C381.939 301.357 471.031 212.615 471.031 212.615C534.382 166.041 770.91 40.1395 788.689 37.936C806.467 35.7325 868.466 49.6046 878.031 50.3058C887.597 51.0069 916.543 31.4256 916.543 31.4256C1002.43 38.5369 1086.41 108.949 1126.48 139.448C1138.41 148.864 1148.21 160.697 1155.25 174.17C1162.28 187.643 1166.39 202.451 1167.29 217.623C1167.29 217.623 1171.55 364.758 1169.1 372.52C1166.64 380.283 1142.8 397.16 1142.8 397.16C1142.8 397.16 1143.61 314.227 1083.61 343.624C1023.61 373.021 1010.59 475.335 1005.08 480.543C999.576 485.751 706.207 655.472 641.253 693.032C641.904 674.553 639.55 655.723 625.678 642.452C609.552 627.077 585.614 629.08 566.634 636.843C547.187 644.409 530.482 657.676 518.707 674.903C501.48 696.137 493.167 724.182 489.01 750.725C488.559 754.03 486.756 800.003 486.005 800.003C327.802 851.836 152.472 661.883 148.967 647.009C145.461 632.135 151.12 530.323 151.12 530.323Z" fill="#3196AE"/>
<path opacity="0.33" d="M150.82 530.523L192.186 461.112C237.258 425.755 349.337 342.422 349.337 342.422C381.689 301.757 470.781 213.066 470.781 213.066C534.132 166.491 770.61 40.5401 788.438 38.3867C806.267 36.2333 868.216 50.0554 877.781 50.7064C887.346 51.3575 916.293 31.8763 916.293 31.8763C1002.18 38.9376 1086.11 109.35 1126.23 139.849C1138.16 149.279 1147.96 161.121 1154.99 174.602C1162.02 188.082 1166.13 202.896 1167.04 218.074C1167.04 218.074 1171.3 365.159 1168.8 372.921C1166.29 380.684 1142.55 397.56 1142.55 397.56C1142.55 397.56 1143.36 314.678 1083.36 344.025C1023.36 373.372 1010.49 475.635 1004.93 480.994C999.375 486.352 706.057 655.923 641.153 693.483C641.754 675.004 639.4 656.174 625.528 642.902C609.402 627.528 585.464 629.531 566.534 637.293C547.083 644.827 530.373 658.08 518.607 675.304C501.33 696.588 493.016 724.583 488.91 751.175C488.409 754.481 486.606 800.454 485.855 800.454C327.652 852.237 152.322 662.333 148.817 647.46C145.311 632.586 150.82 530.523 150.82 530.523Z" fill="#2E3192"/>
<path opacity="0.33" d="M275.719 667.041C334.864 704.601 395.911 721.027 498.726 707.105C496.923 714.417 490.112 743.363 488.96 750.624C488.459 753.98 486.656 799.953 485.955 799.953C327.702 851.736 152.372 661.783 148.867 646.959C145.662 633.237 150.219 545.447 150.97 531.775C179.366 590.969 186.176 610.451 275.719 667.041Z" fill="#2E3192"/>
<path d="M208.712 632.486C208.712 632.486 207.811 656.274 208.261 656.724C235.556 680.166 266.495 698.993 299.858 712.464L300.308 689.276C300.308 689.276 245.421 662.534 208.712 632.486Z" fill="#D7FBFF"/>
<path d="M492.415 218.424C480.096 206.655 370.42 328.6 363.509 345.077C356.598 361.553 346.432 372.07 369.168 397.31C391.905 422.55 520.36 497.821 545.901 504.031C571.441 510.241 585.264 523.812 619.819 492.212C654.374 460.611 706.307 357.346 706.307 357.346C706.307 357.346 554.615 278.32 492.415 218.424Z" fill="#A8EBEF"/>
<path d="M370.471 320.387C370.471 320.387 346.182 299.854 329.806 307.266C313.43 314.678 349.587 342.322 349.587 342.322L370.471 320.387Z" fill="#2E3192"/>
<path d="M1142.79 463.261C1167.13 412.91 1159.57 358.9 1125.9 342.624C1092.23 326.349 1045.21 353.973 1020.87 404.324C996.528 454.674 1004.09 508.685 1037.76 524.96C1071.42 541.235 1118.45 513.612 1142.79 463.261Z" fill="#2E3192"/>
<path d="M1121.7 450.227C1134.94 422.836 1130.82 393.448 1112.49 384.588C1094.16 375.728 1068.57 390.751 1055.33 418.143C1042.09 445.534 1046.21 474.922 1064.54 483.782C1082.87 492.642 1108.46 477.619 1121.7 450.227Z" fill="#DDDDDD"/>
<path d="M348.035 691.08C343.44 689.757 339.219 687.372 335.715 684.118C329.556 677.358 333.812 668.543 338.67 662.333C343.413 656.369 350.123 652.286 357.6 650.815C372.525 646.916 387.656 643.856 402.923 641.65C412.939 640.198 423.355 638.946 433.772 638.245C444.817 636.784 456.014 636.902 467.025 638.596C478.544 641.05 475.839 655.923 472.033 663.636C464.62 675.943 453.965 685.974 441.234 692.632C432.305 697.698 422.372 700.741 412.137 701.546C401.242 702.018 390.33 701.178 379.636 699.042C371.711 697.7 363.882 695.843 356.198 693.483C353.344 692.732 350.689 692.031 348.035 691.08Z" fill="#A8EBEF"/>
<path d="M151.12 530.323C151.12 530.323 170.251 567.933 181.519 577.498C192.787 587.063 198.245 580.553 199.648 570.988C201.05 561.422 193.989 460.812 192.386 460.812C190.784 460.812 163.039 474.383 151.12 530.323Z" fill="#A8EBEF"/>
<path d="M222.184 562.023C225.589 563.626 229.345 567.031 232.2 568.183C251.297 579.768 270.327 591.454 289.291 603.239L317.736 620.917C323.896 624.824 337.768 629.481 331.659 638.746C324.992 648.175 317.016 656.607 307.971 663.786C301.811 669.094 296.602 670.747 288.99 666.24C275.068 658.127 261.146 650.114 247.274 641.6C236.607 635.441 224.437 627.378 221.082 614.507C217.523 601.1 215.127 587.411 213.92 573.592C213.57 568.984 212.769 559.369 220.08 560.571C220.841 560.963 221.547 561.451 222.184 562.023Z" fill="#A8EBEF"/>
<path d="M393.507 761.091C395.895 761.784 397.999 763.222 399.513 765.195C401.026 767.168 401.87 769.573 401.921 772.059C401.921 783.828 391.204 783.277 382.94 783.577C372.624 783.978 280.176 752.778 219.98 705.552C159.784 658.327 149.417 618.363 149.417 618.363L149.968 587.564C149.968 587.564 164.692 651.616 243.618 698.491C276.124 717.817 310.442 733.919 346.082 746.568C357.133 750.508 368.317 754.063 379.635 757.235C384.344 758.192 388.98 759.481 393.507 761.091Z" fill="#A8EBEF"/>
<path d="M1008.64 180.263L1074.24 184.32C1074.24 184.32 1083.66 187.926 1078.15 172C1072.64 156.075 1009.14 91.5216 924.706 71.8402C924.706 71.8402 807.669 51.8081 829.554 59.9211C841.673 64.7788 936.976 109.801 1008.64 180.263Z" fill="#A8EBEF"/>
<path d="M1004.98 287.785C1026.42 272.761 1048.1 257.737 1068.94 241.962C1057.03 235.494 1044.02 231.315 1030.58 229.642C1022.37 229.091 1014.14 229.091 1005.94 229.642L1004.98 287.785Z" fill="#A8EBEF"/>
<path d="M860.704 271.96C814.05 294.503 772.211 325.881 737.507 364.357C702.306 405.233 674.481 451.919 655.276 502.328C654.559 504.205 654.448 506.259 654.959 508.202C655.47 510.145 656.577 511.88 658.124 513.162C659.671 514.443 661.58 515.208 663.585 515.349C665.589 515.49 667.587 514.999 669.298 513.946C705.956 491.11 778.522 445.637 830.806 411.984L843.927 403.57V402.619L858.6 392.152L860.704 271.96Z" fill="#A8EBEF"/>
<path d="M985.603 231.295C966.456 233.984 947.574 238.307 929.163 244.216C915.892 248.422 902.721 253.33 889.7 258.789L887.647 371.519L979.544 305.864L984.251 302.559L985.603 231.295Z" fill="#A8EBEF"/>
<path d="M627.645 754.903C652.816 702.834 645.686 647.313 611.721 630.894C577.755 614.474 529.816 643.373 504.645 695.442C479.474 747.511 486.603 803.032 520.568 819.451C554.534 835.871 602.473 806.971 627.645 754.903Z" fill="#2E3192"/>
<path d="M605.76 741.375C619.459 713.037 615.585 682.824 597.109 673.892C578.632 664.96 552.548 680.691 538.849 709.029C525.15 737.367 529.023 767.58 547.5 776.512C565.977 785.444 592.061 769.713 605.76 741.375Z" fill="#DDDDDD"/>
<path d="M563.829 509.289L552.111 266.301L527.021 247.471L538.339 502.628L563.829 509.289Z" fill="#D7FBFF"/>
<path d="M474.987 225.235L491.314 477.989L443.838 450.295L438.179 258.388L474.987 225.235Z" fill="#D7FBFF"/>
<path d="M631.888 85.512C626.872 82.5619 623.216 77.7589 621.707 72.1381C620.199 66.5174 620.96 60.5291 623.825 55.464C625.127 53.1519 626.822 51.0844 628.833 49.3542C632.74 46.1992 635.995 43.5449 637.698 42.4432C678.972 17.0228 723.249 -3.16426 769.508 -17.6528L847.683 -42.2922L878.482 -38.7365C810.953 14.3423 739.577 62.334 664.941 104.843L631.888 85.512Z" fill="url(#paint1_linear_137_15)"/>
<path d="M508.441 101.888C506.623 100.832 505.032 99.4271 503.758 97.7545C502.484 96.082 501.553 94.1744 501.018 92.1413C500.483 90.1081 500.355 87.9893 500.64 85.9064C500.926 83.8235 501.619 81.8174 502.682 80.0032C503.648 78.3422 504.903 76.8669 506.388 75.6462L512.547 70.6382C542.441 52.3384 574.508 37.8529 608 27.5194C626.83 21.3595 654.324 11.594 673.104 5.7346L686.726 12.5454C638.033 50.883 586.559 85.5503 532.73 116.261L508.441 101.888Z" fill="url(#paint2_linear_137_15)"/>
<path d="M682.519 -138.746H675.007C670.72 -138.746 667.245 -135.271 667.245 -130.984V6.3856C667.245 10.6727 670.72 14.148 675.007 14.148H682.519C686.806 14.148 690.281 10.6727 690.281 6.3856V-130.984C690.281 -135.271 686.806 -138.746 682.519 -138.746Z" fill="#BC532A"/>
</g>
<defs>
<linearGradient id="paint0_linear_137_15" x1="127.232" y1="904.52" x2="841.974" y2="377.328" gradientUnits="userSpaceOnUse">
<stop stop-color="#8997E8" stop-opacity="0.44"/>
<stop offset="1" stop-color="#2E3192"/>
</linearGradient>
<linearGradient id="paint1_linear_137_15" x1="671.602" y1="66.3314" x2="832.258" y2="-52.208" gradientUnits="userSpaceOnUse">
<stop stop-color="#8997E8" stop-opacity="0.44"/>
<stop offset="1" stop-color="#2E3192"/>
</linearGradient>
<linearGradient id="paint2_linear_137_15" x1="537.287" y1="88.0661" x2="653.372" y2="2.4293" gradientUnits="userSpaceOnUse">
<stop stop-color="#8997E8" stop-opacity="0.44"/>
<stop offset="1" stop-color="#2E3192"/>
</linearGradient>
</defs>
</svg>
