<svg transform="scale(4)" id="_0625_Workflow_1" xmlns="http://www.w3.org/2000/svg" xmlns:xlink="http://www.w3.org/1999/xlink" viewBox="0 0 500 500" class="show_show__wrapper__graphic__5Waiy "><title>React</title><defs><style>.cls-1{fill:url(#linear-gradient);}.cls-1,.cls-2,.cls-3,.cls-4,.cls-5,.cls-6,.cls-7,.cls-8,.cls-9,.cls-10,.cls-11,.cls-12,.cls-13,.cls-14,.cls-15{stroke-width:0px;}.cls-2{opacity:.18;}.cls-2,.cls-16,.cls-3{isolation:isolate;}.cls-2,.cls-15{fill:#6fd0ff;}.cls-16{opacity:.79;}.cls-3{opacity:.33;}.cls-3,.cls-13{fill:#fff;}.cls-4{fill:url(#linear-gradient-4);}.cls-5{fill:url(#linear-gradient-2);}.cls-6{fill:url(#linear-gradient-3);}.cls-7{fill:url(#linear-gradient-8);}.cls-8{fill:url(#linear-gradient-9);}.cls-9{fill:url(#linear-gradient-7);}.cls-10{fill:url(#linear-gradient-5);}.cls-11{fill:url(#linear-gradient-6);}.cls-12{fill:#231f20;}.cls-14{fill:#ffa482;}</style><linearGradient id="linear-gradient" x1="-631.98" y1="-802.47" x2="-668.46" y2="-882.53" gradientTransform="translate(581.19 -709.6) rotate(-13.62) scale(1 -1)" gradientUnits="userSpaceOnUse"><stop offset="0" stop-color="#fff"></stop><stop offset="1" stop-color="#fff" stop-opacity="0"></stop></linearGradient><linearGradient id="linear-gradient-2" x1="-290.04" y1="-156.69" x2="-316.77" y2="-359.92" gradientTransform="translate(468 -170) scale(1 -1)" gradientUnits="userSpaceOnUse"><stop offset="0" stop-color="#231f20"></stop><stop offset=".08" stop-color="#231f20" stop-opacity=".69"></stop><stop offset=".21" stop-color="#231f20" stop-opacity=".32"></stop><stop offset="1" stop-color="#231f20" stop-opacity="0"></stop></linearGradient><linearGradient id="linear-gradient-3" x1="-3937.73" y1="-1111.86" x2="-3966.79" y2="-1022.03" gradientTransform="translate(-2998.68 2913.89) rotate(126.83)" xlink:href="#linear-gradient-2"></linearGradient><linearGradient id="linear-gradient-4" x1="-205.78" y1="-467.23" x2="-192.83" y2="-547.14" xlink:href="#linear-gradient-2"></linearGradient><linearGradient id="linear-gradient-5" x1="-205.75" y1="-471.64" x2="-200.79" y2="-509.96" xlink:href="#linear-gradient-2"></linearGradient><linearGradient id="linear-gradient-6" x1="-162.58" y1="-517.78" x2="-253.53" y2="-711.78" xlink:href="#linear-gradient-2"></linearGradient><linearGradient id="linear-gradient-7" x1="-202.19" y1="-518.77" x2="-374.1" y2="-680.08" gradientTransform="translate(468 -170) scale(1 -1)" gradientUnits="userSpaceOnUse"><stop offset="0" stop-color="#000"></stop><stop offset=".15" stop-color="#000" stop-opacity=".69"></stop><stop offset=".27" stop-color="#000" stop-opacity=".32"></stop><stop offset="1" stop-color="#000" stop-opacity="0"></stop></linearGradient><linearGradient id="linear-gradient-8" x1="-205.98" y1="-522.33" x2="-371.25" y2="-677.4" xlink:href="#linear-gradient-7"></linearGradient><linearGradient id="linear-gradient-9" x1="-171.69" y1="-589.08" x2="-173.04" y2="-591.97" xlink:href="#linear-gradient-2"></linearGradient></defs><path class="cls-2" id="background" d="M466.42,293.51c-7.77,37.79-19.85,75.36-47.88,103.25-5.6,5.57-11.6,10.69-17.93,15.38-17.86,13.25-38.35,23.02-59.68,29.47-7.59,2.3-15.29,4.2-23.06,5.79-.33.08-.66.15-.99.21-5.81,1.18-11.66,2.2-17.53,3.1-4.01.62-8.05,1.17-12.1,1.66-13.09,1.59-26.34,2.52-39.6,2.66-21.58.23-43.15-1.63-63.93-6.11-27.95-6.03-54.49-16.82-77.74-33.67-14.43-10.46-27.56-23.42-35.16-39.54-7.36-15.62-9.12-33.18-11.46-50.29-4.31-31.56-9.74-64.32-20.9-94.26-3.12-8.36-5.16-16.95-6.31-25.67-3.74-28.54,2.04-57.59,11.16-84.6,7.26-21.5,26.25-36.73,45.03-48.76,38.99-24.99,88.16-34.56,133.4-23.7,15.67,3.76,31.16,9.97,43.03,20.88,9.04,8.3,16.52,18.38,25.38,26.78,10.31,9.77,24.14,16.73,36.39,23.81,26.41,15.27,53.76,28.84,80.07,44.29,12.22,7.18,24.31,14.84,34.43,24.77,28.27,27.73,33.05,67.24,25.38,104.55h0Z"></path><g id="flow"><path class="cls-15" d="M256.19,250.53c4.5-5.23,8.62-11.62,12-19.45l-4.04-1.74c-8.5,19.66-22.71,32.35-42.24,37.73-14.68,4.04-27.05,2.21-27.17,2.19l-.68,4.35c.53.08,13.28,2,28.84-2.25,10.1-2.75,22.74-8.58,33.28-20.82h.01Z"></path><polygon class="cls-15" points="260.21 228.48 272.16 233.42 270.49 221.62 260.21 228.48"></polygon><path class="cls-15" d="M244.51,111.85c-5.43-1.29-11.57-1.88-18.46-1.41l.25,3.55c0-.17,7-.12,7.65-.08,2.45.12,4.9.4,7.31.84,4.64.85,9.15,2.35,13.36,4.48,4.24,2.15,8.14,4.93,11.6,8.17.56.52,1.1,1.05,1.64,1.6s.99,1.23,1.67,1.51c.88-.63,1.76-1.26,2.63-1.89-.06-.25-.11-.37-.28-.57-5.74-6.25-14.63-13.17-27.36-16.21h-.01Z"></path><polygon class="cls-15" points="227.15 117.15 226.26 106.72 218.39 112.3 227.15 117.15"></polygon></g><g id="idea"><path class="cls-15" d="M184.73,246.38c-.36-18.21-16.28-32.29-35.45-31.24-18.49,1.02-33.28,16.04-33.16,33.68.07,10.08,4.91,18.93,12.45,24.7,5.3,4.05,8.66,9.97,9.6,16.44l1.55,10.74,10.83-.45,1.82-.07,10.83-.45,1.14-10.95c.68-6.6,4-12.72,9.14-17.3,7.07-6.29,11.44-15.27,11.24-25.09h0Z"></path><path class="cls-1" d="M182.98,246.41c-.34-17.27-15.44-30.64-33.63-29.64-17.54.96-31.58,15.22-31.46,31.95.07,9.56,4.66,17.96,11.81,23.43,5.02,3.85,8.22,9.46,9.1,15.6l1.47,10.19,10.28-.42,1.73-.07,10.28-.42,1.08-10.39c.65-6.26,3.8-12.07,8.67-16.41,6.7-5.96,10.85-14.49,10.66-23.8h0v-.02Z"></path><g class="cls-16"><path class="cls-13" d="M155.02,295.01c-1.73-6.56-.86-13.46-.02-20.12.17-1.38.35-2.75.5-4.12.06-.55.1-1.11.14-1.69.05-.64.09-1.3.17-1.97-.12-.07-.23-.14-.35-.22-1-.68-1.67-1.62-2.32-2.6-.33-.5-.67-1.02-.99-1.58,0,0-.01,0-.02.01-1.13.87-2.52,1.55-4.12,2.05.36,1.65.59,3.31.76,4.91.44,4.16.62,8.4.51,12.6-.08,3.47-.36,8.01-1.78,12.39l-1.64-.53c1.35-4.18,1.62-8.56,1.7-11.91.1-4.13-.07-8.29-.51-12.38-.16-1.52-.38-3.11-.72-4.67-.23.05-.46.09-.7.13-1.85.32-3.33.33-4.64.03-1.56-.36-3.04-1.21-4.41-2.52-1.49-1.43-2.33-2.95-2.5-4.52-.22-2.01.87-4.03,2.61-4.8,2.27-1,4.79.23,6.38,1.72,2.33,2.18,3.68,4.95,4.51,7.86,1.37-.43,2.54-1.01,3.5-1.74.09-.07.17-.14.26-.21-.21-.46-.39-.94-.54-1.43-.41-1.35-.71-3.39.14-5.4.54-1.27,1.5-2.04,2.57-2.05.01,0,.02,0,.03,0,.9,0,1.76.57,2.19,1.47.38.79.34,1.66.27,2.24-.23,2.05-1.14,4-2.56,5.54.36.65.75,1.27,1.13,1.83.49.74.95,1.4,1.53,1.89.26-1.18.69-2.33,1.42-3.35.86-1.2,2.11-2.14,3.51-2.63.8-.29,1.57-.38,2.26-.28,1.34.21,2.43,1.4,2.82,2.46.72,1.98-.86,3.86-2.43,4.88-1.73,1.12-4.1,1.83-6.23,1.41-.05.49-.08.99-.12,1.48-.04.6-.09,1.18-.15,1.75-.15,1.38-.33,2.77-.5,4.15-.82,6.5-1.67,13.23-.02,19.47l-1.66.44ZM157.71,266.01c1.67.37,3.66-.24,5.06-1.14,1.08-.7,2.09-1.89,1.75-2.84-.21-.57-.85-1.26-1.47-1.35-.41-.06-.89,0-1.43.2-1.08.38-2.03,1.09-2.69,2.01-.65.92-1.01,1.99-1.22,3.13ZM138.47,254.88c-.37,0-.73.07-1.07.22-1.05.46-1.73,1.77-1.59,3.04.13,1.15.79,2.32,1.98,3.47,1.14,1.09,2.35,1.79,3.61,2.08,1.08.25,2.34.23,3.96-.05.19-.03.38-.07.57-.11-.76-2.64-1.98-5.12-4.02-7.03-.92-.86-2.2-1.62-3.43-1.62ZM153.56,253.98h0c-.41,0-.8.51-1.01,1.01-.51,1.2-.54,2.71-.08,4.24.06.19.12.38.19.57.9-1.18,1.5-2.59,1.66-4.02.07-.59.03-1-.11-1.3-.12-.25-.38-.49-.64-.49Z"></path></g><path class="cls-12" d="M138.77,294.12l24.83-1.03.15,7.65c.07,3.56-2.9,6.57-6.64,6.73l-11.3.47c-3.73.15-6.82-2.61-6.89-6.17l-.15-7.65h0Z"></path></g><g id="research"><path class="cls-15" d="M313.44,188.68h0c1.53-1.95,4.36-2.28,6.31-.75l16.78,13.22c1.95,1.53,2.29,4.36.75,6.31h0c-1.53,1.95-4.36,2.28-6.31.75l-16.78-13.22c-1.95-1.53-2.29-4.36-.75-6.31Z"></path><circle class="cls-15" cx="291.18" cy="171.14" r="31.7"></circle><circle class="cls-13" cx="291.18" cy="171.14" r="21.04"></circle><rect class="cls-12" x="330.36" y="192.15" width="14.09" height="30.43" rx="4.33" ry="4.33" transform="translate(-34.26 344.15) rotate(-51.78)"></rect></g><g id="result"><g id="lamp"><g id="effect"><polygon class="cls-15" points="100.98 100.57 100.95 106.01 67.95 105.83 67.99 97.71 100.98 100.57"></polygon><polygon class="cls-15" points="109.61 130.94 112.76 133.21 99 152.29 94.3 148.91 109.61 130.94"></polygon><polygon class="cls-15" points="101.1 118.99 102.34 122.12 83.32 129.66 81.46 124.98 101.1 118.99"></polygon><polygon class="cls-15" points="225.2 81.68 225.2 84.46 208.29 84.47 208.29 80.31 225.2 81.68"></polygon><polygon class="cls-15" points="204.92 67.18 203.31 64.22 221.27 54.43 223.68 58.85 204.92 67.18"></polygon><polygon class="cls-15" points="196.21 57.65 194.15 56.76 199.56 44.23 202.65 45.56 196.21 57.65"></polygon></g></g><g id="thick"><path class="cls-5" d="M183.49,149.8l.57,18.46-12.05-13.74c-3.39.86-6.94,1.31-10.59,1.31-23.98,0-43.43-19.44-43.43-43.43s19.45-43.43,43.43-43.43,43.43,19.44,43.43,43.43c0,15.93-8.58,29.85-21.35,37.41h-.01Z"></path><path class="cls-13" d="M183.21,144.24l.57,18.46-12.05-13.74c-3.39.86-6.94,1.31-10.59,1.31-23.98,0-43.43-19.44-43.43-43.43s19.45-43.43,43.43-43.43,43.43,19.44,43.43,43.43c0,15.93-8.58,29.85-21.35,37.41h-.01Z"></path><g id="approval"><polygon class="cls-15" points="149.71 122.13 135.49 106.02 142.68 99.67 151.27 109.41 181.22 88.76 186.66 96.66 149.71 122.13"></polygon></g></g></g><g id="character"><path class="cls-14" d="M197.44,396.71c-.08.04-.15.07-.22.09-1.14.39-2.22.47-3.42.51-3.41.1-6.79.83-9.94,2.15-1.31.55-2.81,1.62-2.52,3.01.1.48.41.9.46,1.39.12,1.12-1.09,1.87-2.14,2.28s-2.29.99-2.39,2.11c-.06.73.43,1.4,1.01,1.87,1.34,1.07,3.12,1.37,4.82,1.64,3.14.49,6.29.97,9.46,1,.96,0,1.95-.04,2.8-.46.74-.37,1.32-1,1.87-1.62,1.87-2.09,3.83-4.31,6.49-5.2.61-.2,1.28-.36,1.71-.84,1.22-1.36-2.87-5.18-3.72-6.18-.42-.49-1.59-2.37-2.28-2.51-.56-.12-1.4.49-2,.78v-.02Z"></path><path class="cls-15" d="M207.4,410.7s.19-.04.53-.13c.02.01.03,0,.05,0,1.83-.4,3.65-.8,5.47-1.22,8.98-2.05,17.95-4.23,26.79-6.85,3.97-1.18,7.98-2.4,11.78-4.06,1.18-.52,2.49-1.05,3.51-1.87,2.12-1.69,1.71-5.76.79-8-.91-2.21-2.53-4.07-4.35-5.62-1.01-.87-2.09-1.66-3.28-2.26-2.22-1.13-4.72-1.53-7.19-1.63-1.98-.08-4.55-.33-6.44.22-2.8.83-5.56,2.32-8.26,3.45-4.22,1.76-8.45,3.52-12.67,5.28-5.57,2.32-11.13,4.65-16.7,6.97l9.96,15.69v.03Z"></path><path class="cls-6" d="M207.93,410.57h.05c1.39-.3,2.78-.61,4.16-.92,9.1-2.06,18.19-4.26,27.15-6.87,4.19-1.22,8.41-2.49,12.43-4.2,1.23-.52,3.3-1.19,4.12-2.31,1.65-2.23.16-6.31-1.65-7.95-3.88-3.53-8.91-1.68-13.1.04-2.12-2.72-3.57-5.95-4.19-9.34-1.8.28-3.63.57-5.31,1.3s-3.22,1.93-3.96,3.6c-.8,1.81-.57,3.88-.82,5.84-.2,1.55-.58,3.74-2.08,4.5s-3.5.91-5.05,1.43c-4.07,1.37-8.06,3.02-11.82,5.12-.42.24-.85.47-1.09.88-.27.48-.18,1.07-.09,1.6.4,2.43.82,4.87,1.24,7.28h0Z"></path><path class="cls-15" d="M302.05,363.33c-1.14,6.83-2.11,13.69-2.92,20.58-1.16,9.78-2,19.6-2.51,29.44-.32,6.21-.51,12.42-.58,18.63-.02,1.71-.03,3.41-.03,5.12,0,3.33.13,6.84-.08,10.3-.33.08-.66.15-.99.21-5.81,1.18-11.66,2.2-17.53,3.1-4.01.62-8.05,1.17-12.1,1.66-13.09,1.59-26.34,2.52-39.6,2.66-2.35-8.46-.88-22.14,1.33-36.81h0c.65-4.29,1.36-8.67,2.07-13.02.67-4.21,1.34-8.4,1.92-12.48,1.6-11.21,2.6-21.54,1.54-29.03-2.7-19.16,15.96-25.13,24.45-26.85,2.45-.49,4.05-.63,4.05-.63l.95-.12,10.74-1.36,5.6-.7,2.1-.27c5.12,2.6,10.2,5.39,15.03,8.49,5,3.21,7.14,5.58,7.8,8.47.71,3.08-.26,6.74-1.24,12.61h0Z"></path><path class="cls-15" d="M279.31,332.47s4.3,1.7,4.59,3.07-9.57,12.36-18.13,10.22-12.45-8.03-12.45-8.03l4.42-1.22,21.57-4.04Z"></path><path class="cls-4" d="M279.31,332.47s4.3,1.7,4.59,3.07-9.35,11.07-18.13,10.22c-12.45-1.21-12.45-8.03-12.45-8.03l4.42-1.22,21.57-4.04Z"></path><path class="cls-14" d="M260.07,333.2c-.47,1.88-1.81,3.51-3.8,3.85.35,1.39,1.38,2.55,2.59,3.3s2.63,1.15,4.04,1.43c2.4.47,4.9.62,7.28.05,3.76-.9,7.5-3.34,9.92-6.33.41-.5.79-1.13.62-1.75-.17-.64-.83-.98-1.41-1.3-.9-.49-1.76-1.08-2.4-1.87-.57-.7-.96-1.53-1.3-2.37-.79-1.94-1.35-3.96-1.69-6.03-.17-1.06-.28-2.13-.33-3.2-.03-.71.21-1.86-.18-2.49-.14-.22-.35-.35-.57-.45-1.11-.51-2.36-.33-3.49.11s-2.18,1.12-3.29,1.62c-1.44.65-2.98,1-4.32,1.91-1.7,1.15-2.7,3.11-2.1,5.38.55,2.06.94,4.22.79,6.35-.04.62-.2,1.19-.34,1.77l-.02.02Z"></path><path class="cls-10" d="M270.3,323.76c0,1.2,0,2.43-.32,3.58-.33,1.18-1,2.23-1.69,3.23-.71,1.03-1.48,2.04-2.44,2.81s-2.16,1.28-3.37,1.19c-.6-.04-1.24-.28-1.57-.81-.19-.31-.25-.69-.3-1.05-.23-1.6-.36-3.22-.4-4.84,0-.34-.01-.69.09-1.01.13-.4.42-.73.7-1.04,2.35-2.59,4.79-5.11,6.85-7.96.27-.37.97-1.84,1.48-1.8.59.04.59,1.4.67,1.92.28,1.91.29,3.85.29,5.77h0Z"></path><path class="cls-11" d="M295.99,432c.13,5.52-.37,10.95-1.05,15.61-5.81,1.18-11.66,2.2-17.53,3.1-4.01.62-8.05,1.17-12.1,1.66-.86.1-3.52-2.37-4.24-2.86-1.73-1.17-3.04-1.84-4.99-2.56-3.96-1.47-7.51-2.46-11.75-2.89s-8.33-.62-12.27-2.02c-1.93-.68-3.97-1.89-4.42-3.89-.32-1.4.25-2.9,1.2-3.99.95-1.09,2.22-1.83,3.51-2.47,2.52-1.25,5.18-2.2,7.88-2.96,2.49-.7,5-.64,7.5-1.26,5.35-1.33,10.04-4.66,13.95-8.44,1.48-1.43,2.88-2.95,4.52-4.19,3.44-2.61,7.7-3.83,11.7-5.47s8.04-3.96,9.98-7.81c1.26-2.5,1.51-5.37,2.2-8.09.69-2.72,2.08-5.53,4.65-6.65,1.7.43,3.1,1.9,3.43,3.62.2,1.02.04,2.07-.11,3.1-.53,3.58-1.48,7.31-1.15,10.91.33,3.6,0,6.85-.2,10.32-.3,5.2-.76,10.43-.76,15.64.02.53.04,1.06.05,1.58h0Z"></path><path class="cls-15" d="M253.8,423.76c-2.26,1.11-4.45,2.63-5.04,4.86-.21.78-.21,1.59-.11,2.39.23,1.92,1.05,3.8,2.48,5.11.86.78,1.91,1.34,2.98,1.79,4,1.7,8.42,2.13,12.77,2.23,7.27.17,14.57-.53,21.67-2.08,6.89-1.5,13.2-4.84,19.42-8.12,3.94-2.08,11.61-4.95,13.83-9.59,0-.02.02-.05.02-.05.08-.21.16-.39.22-.54.16-.41.23-.64.23-.64,1.55-6.13-4.86-10.66-10.01-11.78-7.3-1.58-14.91.29-21.92,2.85-11.04,4.03-22.12,7.78-33.04,12.09-1.04.41-2.29.89-3.51,1.49h.01Z"></path><path class="cls-15" d="M156.96,428.52l-10.37-46.69c-.54-2.45,1.32-4.77,3.83-4.77h68.96c1.83,0,3.42,1.26,3.82,3.05l9.26,40.59c.41,1.78,1.99,3.05,3.82,3.05h26.49c2.17,0,3.92,1.76,3.92,3.92h0c0,2.17-1.76,3.92-3.92,3.92h-101.99c-1.84,0-3.43-1.28-3.83-3.07h0Z"></path><path class="cls-9" d="M266.7,427.67c0,1.06-.42,2.02-1.09,2.71l-.06.06c-.71.71-1.69,1.15-2.77,1.15h-101.99c-1.84,0-3.43-1.28-3.83-3.07h0l-10.37-46.69c-.32-1.47.21-2.88,1.24-3.79.68-.6,1.58-.98,2.59-.98h68.96c1.83,0,3.42,1.26,3.82,3.05l9.26,40.59c.41,1.78,1.99,3.05,3.82,3.05h26.49c2.17,0,3.92,1.76,3.92,3.92h0Z"></path><path class="cls-7" d="M265.61,430.38l-.06.06c-.71.71-1.69,1.15-2.77,1.15h-101.99c-1.84,0-3.43-1.28-3.83-3.07h0l-10.37-46.69c-.32-1.47.21-2.88,1.24-3.79h67.91c2.04,0,3.81,1.41,4.26,3.41l10.33,45.27c.46,1.98,2.22,3.4,4.26,3.4h29.54c.52,0,1.01.09,1.47.26h0Z"></path><circle class="cls-13" cx="189.22" cy="403.87" r="4.49"></circle><path class="cls-3" d="M161.57,377.07s-.22,47.4,32.14,54.53h-32.92s-2.82.28-3.83-3.07l-10.37-46.69s-.55-4.06,3.83-4.77h11.15Z"></path><path class="cls-8" d="M296.02,420.46l-.36.23c.04-2.56.36-.23.36-.23Z"></path><path class="cls-14" d="M240.5,313.77c.33,1.61.66,3.22,1.24,4.76,1.52,4.02,5.3,10.34,9.82,11.2,1.79.34,3.63.16,5.42-.15,1.86-.32,3.71-.77,5.39-1.62,3.46-1.75,5.94-5.06,7.44-8.63,2.75-6.53,3.27-13.48.53-20.12-1.86-4.52-5.92-8.19-10.73-9.09-4.78-.89-9.65.91-13.97,3.14-2.08,1.07-4.11,2.25-6.07,3.52-.92.59-1.88,1.3-2.16,2.36-.49,1.87.91,4.16,1.32,5.98.64,2.87,1.17,5.78,1.76,8.66h0Z"></path><path class="cls-12" d="M273.75,286.39c-5.46-5.44-15.23-3.57-22.21-3.11-.99.07-2.03.12-2.91-.34s-1.45-1.65-.91-2.48c-1.54,1.27-3.08,2.53-4.63,3.8-.27-1.28-.55-2.55-.82-3.83-1.48,1.77-3.11,3.42-4.85,4.93l-.75-3.39c-3.92,4.36-4.64,11.26-1.93,16.44,2.81,5.36,11.72,4.3,16.57,3.06,1.34-.34,2.67-.74,4.04-.83s2.83.16,3.92,1c1.72,1.33,2.11,3.71,2.98,5.71.05.12.12.25.23.31.08.04.18.05.27.04,2.43-.17,3.6-3.81,6.38-2.14,1.21.72,1.83,2.18,1.84,3.59.01,1.41-.51,2.76-1.15,4.01-.15.28-.3.61-.21.91.06.18.2.33.34.46,1.34,1.38,2.23,3.19,2.51,5.09.24-.69.47-1.39.71-2.08.11.73.22,1.46.33,2.19,1.11-1.86,2.24-3.75,2.8-5.84.48-1.82.51-3.72.55-5.59.04-1.76.41-3.46.54-5.18.14-1.89-.54-4.16-.86-6.03-.36-2.08-.77-4.15-1.19-6.22-.32-1.56-.66-3.17-1.58-4.48h-.01Z"></path><path class="cls-15" d="M301.18,415.38c.74,1.7,1.65,3.31,2.91,4.68,2.8,3.05,7.27,4.5,11.31,3.58,5.09-1.15,8.74-6,9.43-11.04.28-2.14-.09-4.3-.5-6.43-2.94-15.42-7.87-30.45-14.58-44.62-1.9-4.03-4.43-11.82-8.96-14.25-.02,0-.05-.02-.05-.02-.2-.09-.38-.18-.53-.24-.41-.18-.63-.26-.63-.26-6.06-1.82-10.86,4.38-12.22,9.47-1.9,7.23-.37,14.91,1.87,22.03,3.53,11.21,6.78,22.45,10.6,33.54.41,1.2.84,2.4,1.35,3.57h0Z"></path><path class="cls-14" d="M239.43,427.21c-.63,0-1.25.02-1.88.09-1.91.21-3.65,1.05-5.57,1.05-5.03,0-10.06.1-15.08.49-.64.05-1.44.28-1.55,1.08-.07.53.24,1.01.53,1.4,1.27,1.63,2.79,2.94,4.46,3.84,1.64.88,3.39,1.35,5.12,1.82,8.97,2.42,18.4,4.81,27.17,1.44,1.91-.73,4.59-2.95,3.75-6-.35-1.28-1.25-2.21-2.23-2.76-1.17-.66-2.46-.86-3.73-1.05-1.88-.29-3.77-.57-5.65-.86-1.77-.27-3.56-.53-5.35-.55h.01Z"></path></g></svg>